<svg width="86" height="30" viewBox="0 0 86 30" fill="none" xmlns="http://www.w3.org/2000/svg">
<path d="M0.08 0.443998H22.3V5.328H6.944V12.324H20.848V17.208H6.944V29H0.08V0.443998ZM34.5035 0.443998H42.8635L53.1595 29H46.2075L43.6555 21.476H33.2275L30.7195 29H23.9435L34.5035 0.443998ZM42.1595 16.9L38.5515 6.164H38.3755L34.7675 16.9H42.1595ZM69.2181 29.44C67.6341 29.44 66.1674 29.3373 64.8181 29.132C63.4981 28.9267 62.1194 28.5747 60.6821 28.076C59.1274 27.548 57.9101 26.6973 57.0301 25.524C56.1501 24.3213 55.7101 22.8693 55.7101 21.168V8.672C55.7101 7.264 56.0181 6.00266 56.6341 4.888C57.2794 3.77333 58.1008 2.89333 59.0981 2.248C59.9781 1.69067 61.0634 1.22133 62.3541 0.839998C63.6448 0.458664 64.8474 0.223998 65.9621 0.135999C66.9888 0.0479986 68.0741 0.00399828 69.2181 0.00399828C70.5674 0.00399828 71.7408 0.0626651 72.7381 0.179999C73.7354 0.267999 74.8501 0.473333 76.0821 0.795999C77.4901 1.20667 78.6488 1.70533 79.5581 2.292C80.4674 2.87867 81.2301 3.7 81.8461 4.756C82.4914 5.84133 82.8141 7.14667 82.8141 8.672V16.46C82.8141 20.8013 81.6114 23.3387 79.2061 24.072H85.4541V29H76.0821C75.7594 29 74.7621 29.0733 73.0901 29.22C71.4181 29.3667 70.1274 29.44 69.2181 29.44ZM69.3061 24.556C70.2741 24.556 71.0808 24.5267 71.7261 24.468C72.4008 24.38 73.0901 24.2333 73.7941 24.028C74.4981 23.8227 75.0261 23.4853 75.3781 23.016C75.7594 22.5173 75.9501 21.9013 75.9501 21.168V8.628C75.9501 7.27867 75.4074 6.32533 74.3221 5.768C73.2368 5.18133 71.5501 4.888 69.2621 4.888C66.9741 4.888 65.2874 5.16666 64.2021 5.724C63.1168 6.28133 62.5741 7.24933 62.5741 8.628V21.168C62.5741 21.9013 62.7648 22.5173 63.1461 23.016C63.5274 23.4853 64.0848 23.8227 64.8181 24.028C65.5221 24.2333 66.1968 24.38 66.8421 24.468C67.5168 24.5267 68.3381 24.556 69.3061 24.556Z" fill="#023131"/>
</svg>
